PathFileType	4	(X/Y/Z)	C:/Users/beibeiliu/ov580/test_trc/User2\sequence.10_training_dense_left.trc
DataRate	CameraRate	NumFrames	NumMarkers	Units	OrigDataRate	OrigDataStartFrame	OrigNumFrames
120	120	13	19	mm	120	98	122
Frame#	Time	ThumbCMC			ThumbMCP			ThumbIP			ThumbTip			IndexMCP			IndexPIP			IndexTip			MiddleMCP			MiddlePIP			MiddleTip			RingMCP			RingPIP			RingTip			PinkyMCP			PinkyPIP			PinkyTip			BackHand1			BackHand2			BackHand3	
		X0	Y0	Z0	X1	Y1	Z1	X2	Y2	Z2	X3	Y3	Z3	X4	Y4	Z4	X5	Y5	Z5	X6	Y6	Z6	X7	Y7	Z7	X8	Y8	Z8	X9	Y9	Z9	X10	Y10	Z10	X11	Y11	Z11	X12	Y12	Z12	X13	Y13	Z13	X14	Y14	Z14	X15	Y15	Z15	X16	Y16	Z16	X17	Y17	Z17	X18	Y18	Z18	
97	0.808333	-173.033	-2.72075	-0.556632	-160.071	-21.4686	-31.221	-151.619	-32.1679	-61.9712	-145.851	-41.2933	-89.7864	-185.014	36.8065	-70.7971	-179.344	32.3481	-104.37	-175.85	23.8531	-131.316	-201.601	17.294	-83.3086	-181.766	-10.9795	-102.292	-171.045	-40.942	-82.0162	-217.807	13.3938	-84.6061	-210.254	3.68991	-111.024	-194.513	-9.91132	-133.27	-245.393	2.79396	-65.528	-249.664	11.9335	-91.1388	-257.896	22.0191	-110.477	-234.589	13.9854	-22.9666	-241.582	4.65562	11.0643	-207.527	26.0932	-3.08339	
98	0.816667	-170.116	12.0173	0.0888098	-149.562	-11.0595	-24.6828	-137.071	-25.9577	-56.6067	-131.413	-39.0428	-74.7657	-191.749	26.0965	-77.9998	-181.605	17.2989	-108.07	-175.057	6.61071	-130.581	-199.311	5.12085	-86.2693	-174.411	-16.6514	-98.7774	-156.327	-40.0537	-67.0278	-215.43	-6.92879	-86.5585	-203.349	-18.5679	-108.397	-181.062	-30.4568	-125.288	-238.256	-19.475	-65.7365	-243.017	-17.962	-92.8326	-253.506	-14.8161	-115.519	-235.342	1.58095	-27.0527	-242.01	-0.661714	8.50021	-211.899	27.5197	-4.50292	
99	0.825	-184.291	26.0895	-5.98074	-155.714	7.37463	-24.7936	-132.892	-5.08848	-45.7105	-119.399	-19.0086	-61.1664	-199.297	20.192	-85.113	-187.523	11.8196	-106.889	-173.003	-1.93068	-129.226	-200.843	-1.75982	-86.1403	-165.279	-17.0437	-90.8082	-146.98	-22.8326	-54.8665	-210.512	-19.9566	-86.4202	-191.005	-26.8841	-104.474	-164.089	-34.9466	-116.588	-229.895	-31.4799	-60.7698	-233.648	-38.7798	-87.3446	-238.608	-42.3142	-110.565	-240.466	-6.95597	-27.5676	-246.276	-2.23	2.96484	-230.245	28.412	-11.8093	
100	0.833333	-203.769	42.3382	-5.26177	-166.88	33.1786	-24.0065	-140.723	26.1706	-41.2479	-119.802	18.751	-54.5125	-208.4	21.3928	-86.5698	-191.11	12.6717	-106.138	-170.33	0.371474	-126.769	-197.659	-2.15635	-88.7015	-163.064	-3.77913	-88.7821	-143.975	6.01458	-53.3822	-205.653	-20.1908	-81.359	-181.4	-23.3353	-98.7146	-148.868	-24.6287	-108.177	-219.557	-40.4669	-58.1899	-217.62	-46.451	-83.1872	-219.457	-56.0087	-105.471	-240.019	-12.8445	-29.4508	-250.901	-4.70875	4.01897	-243.07	27.5671	-19.6108	
101	0.841667	-223.611	54.2228	-15.5258	-188.305	55.1176	-24.3611	-158.566	56.9176	-42.1314	-135.485	58.4147	-53.4467	-214.687	25.5995	-89.4315	-194.536	23.8113	-106.786	-167.878	15.885	-124.825	-199.763	8.93523	-85.2903	-161.291	20.1375	-83.7522	-149.774	33.9442	-51.7911	-196.824	-11.0408	-80.5561	-167.517	-8.13881	-95.7201	-141.342	3.85465	-100.86	-204.556	-32.828	-54.6906	-197.661	-39.2445	-77.6991	-193.02	-53.897	-100.311	-237.094	-12.5535	-29.5297	-248.66	-10.054	-1.46326	-255.711	22.7293	-28.308	
102	0.85	-241.599	60.4076	-18.4095	-206.946	74.7706	-30.3135	-179.301	83.7042	-44.0867	-156.805	91.1542	-55.0032	-218.403	32.5145	-93.1421	-197.52	36.1332	-108.87	-173.27	36.8473	-120.729	-196.881	20.5762	-85.7164	-170.175	46.2369	-85.1669	-164.009	63.6278	-50.1658	-188.927	2.16591	-76.1762	-165.464	16.5558	-92.8935	-140.95	33.3426	-98.4041	-193.248	-16.1228	-50.8902	-180.916	-25.1028	-76.2151	-170.169	-38.9709	-93.9312	-229.313	-9.16971	-29.0041	-246.69	-6.47105	-2.50384	-258.244	16.5008	-28.7895	
103	0.858333	-253.041	58.9377	-18.0888	-226.594	81.0187	-31.6116	-201.617	99.3763	-49.5712	-181.827	109.927	-62.1168	-225.316	34.2673	-91.3919	-204.614	42.5393	-109.986	-182.055	51.4764	-125.46	-203.816	30.4203	-86.6228	-179.564	60.215	-85.3724	-180.284	79.9312	-55.8617	-192.255	16.7515	-78.1998	-172.309	32.1588	-93.6943	-150.667	55.2273	-102.826	-189.299	-5.19971	-52.047	-175.337	-10.8618	-75.3408	-163.065	-22.711	-94.3653	-226.244	-2.47153	-28.5379	-243.006	-4.66636	-1.29164	-259.796	15.1649	-27.484	
104	0.866667	-265.592	57.6441	-17.6644	-240.677	80.6406	-38.2745	-220.922	101.197	-59.3796	-204.057	113.51	-76.2676	-238.322	32.2282	-93.568	-217.493	41.4195	-113.746	-196.014	51.0805	-131.035	-214.09	30.3755	-88.9542	-195.97	62.2774	-94.0342	-200.01	86.4519	-60.2201	-198.458	20.0248	-83.2483	-185.872	34.7195	-98.9137	-169.56	60.7116	-112.964	-194.38	3.07075	-51.3355	-180.858	-3.92168	-76.181	-167.407	-15.1285	-93.6847	-228.73	-2.43669	-28.0121	-243.051	-6.06055	5.46038	-267.573	15.4289	-24.0975	
105	0.875	-275.733	51.6491	-21.0074	-256.855	75.8261	-42.4369	-238.916	89.3251	-69.4403	-228.145	102.899	-83.7398	-258.705	23.4221	-94.2884	-241.127	28.9544	-114.056	-223.668	38.6946	-139.612	-236.982	24.2811	-93.6975	-218.878	54.8656	-101.871	-221.679	80.0418	-69.1978	-219.207	11.4553	-82.9096	-206.633	28.5305	-109.627	-192.755	52.2384	-127.11	-203.672	-1.80858	-55.724	-194.498	-9.89759	-78.8259	-187.843	-17.1915	-100.685	-241.332	-2.16228	-27.2732	-250.317	-4.49462	6.09039	-272.275	8.89293	-23.4608	
106	0.883333	-291.171	47.2661	-21.2696	-274.481	67.8159	-48.1208	-259.159	75.3652	-80.4985	-247.918	83.6856	-103.03	-280.694	6.31564	-95.1099	-269.894	9.70262	-118.743	-255.563	15.8131	-142.295	-256.882	8.11411	-97.8247	-243.383	38.2794	-107.111	-241.953	62.7734	-73.0524	-242.418	-5.36337	-86.5692	-231.119	5.22944	-113.322	-221.842	25.6101	-134.891	-225.699	-15.8995	-62.8964	-215.203	-27.6783	-82.9304	-209.346	-39.0063	-108.498	-251.119	-11.2143	-27.8663	-257.264	-8.37722	8.56725	-289.289	2.97688	-16.7802	
107	0.891667	-297.53	39.739	-19.5017	-284.341	51.9551	-56.3273	-275.061	58.4256	-85.5977	-268.497	64.5591	-111.009	-305.354	-8.6241	-86.8007	-295.9	-8.90247	-114.371	-283.709	-5.7951	-140.957	-278.428	-9.16807	-95.9054	-265.804	21.1559	-110.063	-260.417	44.0765	-81.6361	-262.582	-22.9405	-87.3329	-255.422	-18.2543	-114.614	-253.007	1.97662	-140.947	-244.76	-30.4314	-60.8992	-242.114	-43.388	-83.3012	-241.469	-56.2156	-107.576	-263.344	-21.2646	-24.8938	-264.723	-12.8288	9.65864	-299.99	-5.6746	-12.0763	
108	0.9	-305.775	33.6756	-19.0813	-293.706	39.9262	-55.873	-289.99	45.1159	-89.8307	-283.83	48.2843	-112.379	-325.732	-19.8733	-79.8507	-321.183	-22.6476	-108.388	-315.645	-19.9548	-139.048	-302.817	-22.7625	-91.816	-286.721	5.81588	-109.288	-279.638	31.1299	-81.5001	-284.628	-38.2464	-86.5011	-281.593	-35.305	-112.333	-278.939	-16.728	-140.262	-263.598	-43.9449	-59.3659	-266.158	-62.2114	-82.1851	-273.128	-72.6749	-101.027	-279.328	-29.1147	-21.5957	-274.828	-20.1483	9.80758	-307.854	-9.62475	-8.6834	
109	0.908333	-309.993	29.6273	-20.5336	-302.737	39.1412	-57.641	-298.017	37.136	-90.5133	-296.047	37.1998	-117.247	-343.592	-20.3817	-75.117	-345.697	-21.9578	-99.8799	-343.288	-21.0939	-128.455	-324.032	-27.1912	-82.2243	-307.761	-3.36204	-108.932	-287.848	19.1254	-85.7783	-310.297	-44.3882	-80.6058	-310.349	-40.3009	-111.92	-305.548	-27.7797	-136.116	-286.81	-55.1887	-57.3457	-299.86	-68.9384	-78.6742	-306.571	-82.6438	-98.9995	-291.585	-33.8903	-17.5489	-284.321	-24.6845	13.0347	-318.28	-9.16284	-0.961455	
